<svg width="108" height="30" viewBox="0 0 108 30" fill="none" xmlns="http://www.w3.org/2000/svg">
<g clip-path="url(#clip0)">
<path d="M28.2917 21.9413C26.8428 21.3029 25.2747 20.9802 23.6915 20.9946C22.1083 21.009 20.5464 21.3602 19.1093 22.0248C19.5116 22.2319 19.909 22.449 20.2963 22.6795C20.6836 22.91 21.0643 23.1538 21.4366 23.4077C21.8618 23.7005 22.2764 24.0072 22.6804 24.3279C22.809 24.4314 22.9375 24.535 23.0644 24.6402C23.6902 25.1629 24.2861 25.7205 24.8491 26.3103C25.6378 27.1416 26.358 28.0352 27.0028 28.9825C27.1698 29.2346 27.3367 29.4835 27.5037 29.7474C27.9411 29.3766 28.3612 28.9869 28.7642 28.5783L28.7758 28.5683C29.2556 28.0794 29.7098 27.566 30.1365 27.0301C30.2478 26.8965 30.353 26.7612 30.452 26.6243C30.5389 26.509 30.619 26.3938 30.7075 26.2769C31.0414 25.8115 31.3564 25.3294 31.6524 24.8306C31.7259 24.707 31.7994 24.5817 31.8695 24.4565C30.8546 23.39 29.6386 22.5351 28.2917 21.9413Z" fill="white"/>
<path d="M17.3913 23.0166L17.0574 22.8729C16.403 23.043 15.7301 23.1316 15.054 23.1368H14.9972C13.7091 23.1369 12.4394 22.8309 11.2926 22.2441C10.1458 21.6573 9.15472 20.8064 8.40094 19.7615C7.52403 18.5455 7.00006 17.1108 6.88687 15.6157C6.77368 14.1206 7.07568 12.6232 7.75951 11.289C8.44335 9.95473 9.48243 8.83544 10.7621 8.05468C12.0417 7.27391 13.5121 6.86203 15.011 6.8645C16.5099 6.86697 17.9789 7.28369 19.256 8.06867C20.533 8.85365 21.5684 9.97636 22.2478 11.3129C22.9273 12.6493 23.2243 14.1477 23.1062 15.6424C22.9881 17.1371 22.4594 18.5701 21.5785 19.7833C24.0469 19.344 26.5901 19.6516 28.8827 20.6667C29.8218 18.36 30.172 15.8557 29.9016 13.3798C29.6313 10.9039 28.7489 8.53424 27.3341 6.48475C25.9194 4.43526 24.0167 2.77041 21.7979 1.64045C19.5791 0.51048 17.1139 -0.0490411 14.6248 0.0123745C12.1358 0.07379 9.70121 0.754209 7.54077 1.99223C5.38034 3.23025 3.56205 4.98691 2.25001 7.10368C0.937959 9.22046 0.17344 11.6307 0.0254426 14.117C-0.122555 16.6032 0.350625 19.0872 1.40228 21.3448C1.62847 21.8297 1.88095 22.302 2.15858 22.7594C3.18722 24.4608 4.54332 25.941 6.14824 27.1142C7.75315 28.2873 9.57493 29.13 11.5079 29.5934C11.9604 29.702 12.4228 29.7888 12.8903 29.8556C13.5878 29.9531 14.2913 30.0017 14.9956 30.0009C18.05 30.006 21.0325 29.0733 23.5402 27.3288C21.7887 25.5071 19.7005 24.0426 17.3913 23.0166Z" fill="white"/>
<path d="M44.967 18.4343C44.2424 19.7069 42.9068 20.5169 41.1438 20.5169C37.6829 20.5169 35.212 17.9666 35.212 14.1421C35.212 10.2641 37.6829 7.66211 41.0653 7.66211C42.8601 7.66211 44.3944 8.52054 45.0972 9.76978V7.92264H48.2961V25.4086H44.967V18.4343ZM41.82 10.5213C39.9735 10.5213 38.5427 11.9259 38.5427 14.1388C38.5427 16.3232 39.9735 17.6777 41.82 17.6777C43.6147 17.6777 45.0972 16.3232 45.0972 14.1388C45.0972 11.9292 43.6147 10.5213 41.82 10.5213Z" fill="white"/>
<path d="M62.1366 7.92285V20.2565H58.8326V18.4345C58.1831 19.7104 56.8291 20.5171 55.0878 20.5171C52.278 20.5171 50.4315 18.877 50.4315 15.7556V7.92285H53.7589V14.9222C53.7589 16.6925 54.5653 17.6545 56.0228 17.6545C57.7908 17.6545 58.8309 16.3535 58.8309 14.2726V7.92619L62.1366 7.92285Z" fill="white"/>
<path d="M67.6008 7.92318V20.2569H64.2768V7.92318H67.6008ZM67.8312 4.30742C67.8312 4.68034 67.7207 5.04489 67.5135 5.35497C67.3064 5.66505 67.012 5.90672 66.6676 6.04943C66.3232 6.19214 65.9442 6.22948 65.5786 6.15673C65.213 6.08398 64.8771 5.9044 64.6135 5.6407C64.3499 5.377 64.1704 5.04103 64.0976 4.67527C64.0249 4.30951 64.0622 3.93039 64.2049 3.58585C64.3476 3.24131 64.5891 2.94683 64.8991 2.73965C65.2091 2.53246 65.5735 2.42188 65.9463 2.42188C66.1939 2.42166 66.4391 2.47028 66.6679 2.56496C66.8967 2.65964 67.1046 2.79852 67.2796 2.97365C67.4547 3.14878 67.5935 3.35673 67.6882 3.58559C67.7828 3.81446 67.8314 4.05974 67.8312 4.30742Z" fill="white"/>
<path d="M74.885 7.66285C76.6263 7.66285 78.032 8.4979 78.7867 9.77052V2.04297H82.1157V20.2571H78.9169V18.4884C78.1105 19.7627 76.7048 20.5176 74.9618 20.5176C71.4758 20.5176 69.0316 17.9674 69.0316 14.1428C69.0316 10.2649 71.5025 7.66285 74.885 7.66285ZM75.6379 10.5221C73.7914 10.5221 72.3607 11.9266 72.3607 14.1395C72.3607 16.324 73.7914 17.6784 75.6379 17.6784C77.4327 17.6784 78.9169 16.324 78.9169 14.1395C78.9169 11.93 77.4327 10.5221 75.6379 10.5221Z" fill="white"/>
<path d="M88.5417 12.7359C89.2547 12.7289 89.9654 12.8165 90.6553 12.9964L91.7489 13.2569V12.477C91.7489 11.0975 90.7588 10.2641 89.2245 10.2641C87.742 10.2641 86.8321 11.0708 86.5533 12.32L83.6517 11.5401C84.3011 9.14516 86.2528 7.66211 89.2446 7.66211C92.9893 7.66211 94.921 9.43241 94.921 12.6574V20.2563H91.8724V18.3574C91.0644 19.7887 89.7905 20.5169 87.7871 20.5169C85.6551 20.5169 83.7301 19.0589 83.7301 16.6923C83.7301 14.0636 85.6284 12.7359 88.5417 12.7359ZM91.7422 15.5984L90.9892 15.3646C90.3672 15.1558 89.7195 15.0333 89.0643 15.0005C87.8405 15.0005 87.1126 15.5216 87.1126 16.4836C87.1126 17.3938 87.7888 17.9666 89.116 17.9666C90.6503 17.9666 91.7439 17.1316 91.7439 15.702L91.7422 15.5984Z" fill="white"/>
<path d="M103.526 13.7248L108 20.2565H104.228L101.706 16.3268L99.2015 20.2565H95.4367L99.911 13.7248L95.9042 7.92285H99.6706L101.701 11.1495L103.761 7.92285H107.532L103.526 13.7248Z" fill="white"/>
</g>
<defs>
<clipPath id="clip0">
<rect width="108" height="30" fill="white"/>
</clipPath>
</defs>
</svg>
